<?xml version="1.0" standalone="no"?><!DOCTYPE svg PUBLIC "-//W3C//DTD SVG 1.1//EN" "http://www.w3.org/Graphics/SVG/1.1/DTD/svg11.dtd"><svg t="1611656844329" class="icon" viewBox="0 0 1024 1024" version="1.1" xmlns="http://www.w3.org/2000/svg" p-id="5590" xmlns:xlink="http://www.w3.org/1999/xlink" width="200" height="200"><defs><style type="text/css"></style></defs><path d="M983.341 240.487v528.316c0 5.272-0.634 10.513-1.7 15.678l-0.013 0.07-0.179 0.862c-7.527 35.943-39.303 61.637-76.026 61.637H134.525c-27.006 0-52.969-11.22-70.89-31.42-0.51-0.573-1.013-1.155-1.513-1.743a85.895 85.895 0 0 1-3.543-4.463c-11.257-15.179-17.069-33.713-17.069-52.612V254.883c0-29.844 19.364-56.331 47.884-65.126l0.706-0.215 0.19-0.057c10.927-3.274 22.308-4.79 33.717-4.79h812.488c1.244 0.47 2.454 1.157 3.74 1.373 23.423 3.952 37.282 17.575 41.628 40.929l0.008 0.046c0.849 4.443 1.473 8.924 1.473 13.445zM512.425 581.415c138.04-116.176 275.75-232.07 414.834-349.123-60.84-3.549-817.06-1.465-825.689 2.331 136.92 115.571 273.666 230.994 410.855 346.794z m123.057-41.52c-35.333 29.781-70.099 59.1-104.883 88.397-12.641 10.646-23.577 10.722-36.055 0.222-14.828-12.477-29.596-25.025-44.4-37.53-19.497-16.468-39.004-32.926-58.732-49.578L116.054 796.672l0.955 2.13h803.22L635.482 539.895z m-280.33-29.175L89.072 285.916v471.433l266.08-246.63z m316.732-1.49c88.21 80.192 175.586 159.623 264.017 240.013V286.807L671.884 509.231z" p-id="5591"></path></svg>