<?xml version="1.0" standalone="no"?><!DOCTYPE svg PUBLIC "-//W3C//DTD SVG 1.1//EN" "http://www.w3.org/Graphics/SVG/1.1/DTD/svg11.dtd"><svg t="1611656841290" class="icon" viewBox="0 0 1024 1024" version="1.1" xmlns="http://www.w3.org/2000/svg" p-id="5447" xmlns:xlink="http://www.w3.org/1999/xlink" width="200" height="200"><defs><style type="text/css"></style></defs><path d="M512 864c-17.6 0-32-14.4-32-32s14.4-32 32-32 32 14.4 32 32-14.4 32-32 32z" p-id="5448"></path><path d="M736 64H288c-52.8 0-96 43.2-96 96v704c0 52.8 43.2 96 96 96h448c52.8 0 96-43.2 96-96V160c0-52.8-43.2-96-96-96z m-470.5 73.5c3.5-3.5 11.2-9.5 22.5-9.5h448c11.4 0 19 5.9 22.5 9.5 3.5 3.5 9.5 11.2 9.5 22.5v544H256V160c0-11.4 5.9-19 9.5-22.5z m493 749C755 890 747.3 896 736 896H288c-11.4 0-19-5.9-22.5-9.5-3.5-3.5-9.5-11.2-9.5-22.5v-96h512v96c0 11.4-5.9 19-9.5 22.5z" p-id="5449"></path></svg>